<svg width="85" height="28" viewBox="0 0 85 28" fill="none" xmlns="http://www.w3.org/2000/svg">
<g clip-path="url(#clip0_6_298)">
<path d="M60.8171 28H70.0586V18.0469H66.7383V14.7656H70.0586V10.6641C70.0586 8.40244 71.9205 6.5625 74.209 6.5625H78.3594V9.84375H75.0391C74.1236 9.84375 73.3789 10.5797 73.3789 11.4844V14.7656H78.2096L77.6562 18.0469H73.3789V28H80.8496C83.1382 28 85 26.1601 85 23.8984V4.10156C85 1.83994 83.1382 0 80.8496 0H60.8171C58.5286 0 56.6667 1.83994 56.6667 4.10156V23.8984C56.6667 26.1601 58.5286 28 60.8171 28ZM58.3269 4.10156C58.3269 2.74463 59.444 1.64062 60.8171 1.64062H80.8496C82.2227 1.64062 83.3399 2.74463 83.3399 4.10156V23.8984C83.3399 25.2554 82.2227 26.3594 80.8496 26.3594H75.0391V19.6875H79.0626L80.1693 13.125H75.0391V11.4844H80.0195V4.92188H74.209C71.005 4.92188 68.3985 7.49774 68.3985 10.6641V13.125H65.0782V19.6875H68.3985V26.3594H60.8171C59.444 26.3594 58.3269 25.2554 58.3269 23.8984V4.10156Z" fill="white"/>
</g>
<path d="M5.60763 28H22.7257C25.8175 28 28.3333 25.5138 28.3333 22.4583V5.54167C28.3333 2.48617 25.8175 0 22.7257 0H5.60763C2.51576 0 0 2.48617 0 5.54167V22.4583C0 25.5138 2.51576 28 5.60763 28ZM1.77083 5.54167C1.77083 3.451 3.49208 1.75 5.60763 1.75H22.7257C24.8412 1.75 26.5625 3.451 26.5625 5.54167V22.4583C26.5625 24.549 24.8412 26.25 22.7257 26.25H5.60763C3.49208 26.25 1.77083 24.549 1.77083 22.4583V5.54167Z" fill="white"/>
<path d="M14.1674 21.1517C18.1576 21.1517 21.4042 17.9434 21.4042 14.0001C21.4042 10.0567 18.1576 6.84839 14.1674 6.84839C10.1771 6.84839 6.93057 10.0567 6.93057 14.0001C6.93057 17.9434 10.1771 21.1517 14.1674 21.1517ZM14.1674 8.59839C17.1813 8.59839 19.6333 11.0216 19.6333 14.0001C19.6333 16.9786 17.1813 19.4017 14.1674 19.4017C11.1534 19.4017 8.7014 16.9786 8.7014 14.0001C8.7014 11.0216 11.1534 8.59839 14.1674 8.59839V8.59839Z" fill="white"/>
<path d="M21.6732 8.58891C22.8372 8.58891 23.7143 7.72558 23.7143 6.58108C23.7143 5.38758 22.7912 4.57324 21.6744 4.57324C20.5103 4.57324 19.6332 5.43658 19.6332 6.58108C19.6332 7.77224 20.5516 8.58891 21.6732 8.58891ZM21.8821 6.38858C22.2552 6.71408 21.404 7.10958 21.404 6.58224C21.404 6.26724 21.8373 6.34891 21.8821 6.38858Z" fill="white"/>
<defs>
<clipPath id="clip0_6_298">
<rect width="28.3333" height="28" fill="white" transform="translate(56.6667)"/>
</clipPath>
</defs>
</svg>
